<svg xmlns="http://www.w3.org/2000/svg" width="380" height="71.84" viewBox="0 0 380 71.84">
  <g id="Logo" transform="translate(706.412 317.273)">
    <path id="Path_706" data-name="Path 706" d="M-618.1-251.432-620.651-256h-1.715l-.005,9.942h1.607v-6.987l2.623,4.569h.048l2.633-4.6v7h1.612V-256h-1.73Z" fill="#eae6ea"/>
    <path id="Path_707" data-name="Path 707" d="M-605.16-250.332h4.1v-1.488h-4.085v-2.692h4.622V-256H-606.8l-.006,9.924h6.333v-1.488h-4.687Z" fill="#eae6ea"/>
    <path id="Path_708" data-name="Path 708" d="M-594.4-254.448h2.612v8.374h1.647v-8.4h2.607V-256H-594.4Z" fill="#eae6ea"/>
    <path id="Path_709" data-name="Path 709" d="M-581.1-256.037l-3.628,9.986h1.655l.822-2.343h3.87l.822,2.343h1.715l-3.644-9.986Zm-.655,6.176,1.418-3.989,1.419,4Z" fill="#eae6ea"/>
    <path id="Path_710" data-name="Path 710" d="M-560.458-256h-3.177l0,9.907h1.647v-3.225h1.435a3.226,3.226,0,0,0,.405.017,3.332,3.332,0,0,0,3.269-3.393,3.247,3.247,0,0,0-.019-.473A3.216,3.216,0,0,0-560.458-256Zm1.887,3.63a1.8,1.8,0,0,1-1.985,1.589l-1.435.011v-3.714h1.435a1.773,1.773,0,0,1,.371-.014,1.744,1.744,0,0,1,1.623,1.857A1.745,1.745,0,0,1-558.571-252.371Z" fill="#eae6ea"/>
    <path id="Path_711" data-name="Path 711" d="M-550.773-250.332h4.1v-1.488h-4.1v-2.692h4.622V-256H-552.4v9.924h6.327v-1.488h-4.7Z" fill="#eae6ea"/>
    <path id="Path_712" data-name="Path 712" d="M-534.38-252.776v-.107a3.013,3.013,0,0,0-.822-2.183,3.671,3.671,0,0,0-2.65-.935h-3.591l-.02,9.96h1.647v-3.505h1.612a.258.258,0,0,0,.1,0l2.113,3.527h1.9l-2.343-3.843A2.9,2.9,0,0,0-534.38-252.776Zm-3.643,1.725-1.769.022v-3.445h1.8c1.236,0,1.957.58,1.957,1.7v.01C-536.039-251.733-536.749-251.051-538.023-251.051Z" fill="#eae6ea"/>
    <path id="Path_713" data-name="Path 713" d="M-529.517-246.078h1.647v-4.112h4.053v-1.5h-4.053v-2.787h4.579V-256h-6.224Z" fill="#eae6ea"/>
    <path id="Path_714" data-name="Path 714" d="M-514.659-256.139c-2.6,0-4.408,2.116-4.408,5.067v.139c0,2.935,1.783,5.036,4.38,5.036s4.408-2.115,4.408-5.066v-.14C-510.279-254.042-512.063-256.139-514.659-256.139Zm2.685,5.18h0c0,2.139-1.146,3.54-2.684,3.54s-2.688-1.4-2.688-3.558v-.1c0-2.144,1.14-3.547,2.688-3.547s2.688,1.4,2.688,3.558Z" fill="#eae6ea"/>
    <path id="Path_715" data-name="Path 715" d="M-496.57-252.776v-.107a3.033,3.033,0,0,0-.822-2.183,3.687,3.687,0,0,0-2.66-.935h-3.585v9.96h1.646v-3.505h1.586a.355.355,0,0,0,.1,0l2.113,3.527h1.9l-2.338-3.843A2.915,2.915,0,0,0-496.57-252.776Zm-3.647,1.725-1.774.021v-3.446h1.8c1.231,0,1.957.581,1.957,1.7v.011C-498.233-251.733-498.943-251.051-500.217-251.051Z" fill="#eae6ea"/>
    <path id="Path_716" data-name="Path 716" d="M-487.516-251.432-490.07-256h-1.715l-.011,9.942h1.618v-6.987l2.623,4.569h.043l2.66-4.6v7h1.613V-256h-1.73Z" fill="#eae6ea"/>
    <path id="Path_717" data-name="Path 717" d="M-475.193-256.037l-3.655,9.986h1.657l.822-2.343h3.869l.822,2.343h1.715l-3.644-9.986Zm-.637,6.186,1.4-4,1.419,4Z" fill="#eae6ea"/>
    <path id="Path_718" data-name="Path 718" d="M-459.606-249.379l-4.37-6.622h-1.531l.015,9.927h1.612v-6.821l4.5,6.821h1.387V-256h-1.612Z" fill="#eae6ea"/>
    <path id="Path_719" data-name="Path 719" d="M-446.946-247.441c-1.559,0-2.736-1.4-2.736-3.558v-.059c0-2.113,1.178-3.527,2.736-3.527a3.062,3.062,0,0,1,2.153.963l.99-1.267a4.312,4.312,0,0,0-3.118-1.231c-2.564,0-4.439,2.053-4.439,5.058v.1c0,3.021,1.816,5.047,4.349,5.05a4.3,4.3,0,0,0,3.225-1.4l-.961-1.162A3.038,3.038,0,0,1-446.946-247.441Z" fill="#eae6ea"/>
    <path id="Path_720" data-name="Path 720" d="M-437.585-250.332h4.1v-1.488h-4.1v-2.692h4.622V-256h-6.251l-.005,9.924h6.321v-1.488h-4.687Z" fill="#eae6ea"/>
    <rect id="Rectangle_173" data-name="Rectangle 173" width="1.647" height="9.927" transform="translate(-420.258 -256.001)" fill="#eae6ea"/>
    <path id="Path_721" data-name="Path 721" d="M-407.472-249.379-411.836-256h-1.531l.015,9.927h1.613v-6.821l4.493,6.821h1.387V-256h-1.612Z" fill="#eae6ea"/>
    <path id="Path_722" data-name="Path 722" d="M-397.268-251.737c-1.687-.64-2.058-1.022-2.058-1.715,0-.65.559-1.15,1.445-1.15a3.627,3.627,0,0,1,2.226.934l.941-1.257a4.614,4.614,0,0,0-3.124-1.167c-.066-.006-.133-.01-.2-.012a2.871,2.871,0,0,0-2.95,2.791v.038c0,1.585.978,2.279,2.866,2.988,1.572.58,1.9.99,1.9,1.613,0,.72-.612,1.257-1.558,1.257a3.841,3.841,0,0,1-2.612-1.171l-.994,1.231a5.185,5.185,0,0,0,3.58,1.43c.093.01.187.016.281.017a2.913,2.913,0,0,0,2.944-2.882v-.032C-394.58-250.264-395.423-251.028-397.268-251.737Z" fill="#eae6ea"/>
    <path id="Path_723" data-name="Path 723" d="M-388.632-254.448h2.609v8.374h1.647v-8.4h2.6V-256h-6.858Z" fill="#eae6ea"/>
    <rect id="Rectangle_174" data-name="Rectangle 174" width="1.647" height="9.927" transform="translate(-377.215 -256.001)" fill="#eae6ea"/>
    <path id="Path_724" data-name="Path 724" d="M-371.024-254.448h2.6l.009,8.374h1.647v-8.4h2.607V-256h-6.864Z" fill="#eae6ea"/>
    <path id="Path_725" data-name="Path 725" d="M-353.963-249.821c0,1.576-.768,2.382-2.042,2.382s-2.053-.822-2.053-2.435V-256H-359.7v6.16c0,2.6,1.409,3.919,3.651,3.919s3.7-1.311,3.7-4V-256h-1.613Z" fill="#eae6ea"/>
    <path id="Path_726" data-name="Path 726" d="M-345.983-254.448h2.607v8.374h1.647v-8.4h2.612V-256h-6.864Z" fill="#eae6ea"/>
    <path id="Path_727" data-name="Path 727" d="M-331.11-247.565v-2.768h4.1v-1.488h-4.1v-2.692h4.622V-256h-6.256v9.924h6.333v-1.488Z" fill="#eae6ea"/>
    <path id="Path_728" data-name="Path 728" d="M-603.134-275.2-584-317.22h-18.1l-19.139,42.02Z" fill="#eae6ea"/>
    <path id="Path_729" data-name="Path 729" d="M-680.854-301.53l-25.557,56.1h18.1l25.557-56.1Z" fill="#eae6ea"/>
    <path id="Path_730" data-name="Path 730" d="M-649.74-317.273l-32.727,71.84h18.1l32.727-71.84Z" fill="#eae6ea"/>
    <path id="Path_731" data-name="Path 731" d="M-625.79-317.273l-32.727,71.84h18.1l32.723-71.84Z" fill="#eae6ea"/>
  </g>
</svg>
