<svg id="MPI_Landscape" xmlns="http://www.w3.org/2000/svg" width="270" height="51.044" viewBox="0 0 270 51.044">
  <path id="Path_580" data-name="Path 580" d="M156.364,114h1.218l1.814,3.246L161.187,114h1.23v7.054h-1.146v-4.972l-1.871,3.265h-.031l-1.864-3.246v4.965H156.36Z" transform="translate(-96.647 -70.464)" fill="#78c2a6"/>
  <path id="Path_581" data-name="Path 581" d="M185.33,114h4.457v1.058H186.5v1.909h2.9v1.058h-2.91v1.967h3.334v1.058h-4.5Z" transform="translate(-114.553 -70.464)" fill="#78c2a6"/>
  <path id="Path_582" data-name="Path 582" d="M210.256,115.1H208.4V114h4.877v1.088h-1.852v5.965h-1.169Z" transform="translate(-128.813 -70.464)" fill="#78c2a6"/>
  <path id="Path_583" data-name="Path 583" d="M228.968,113.93h1.146l2.589,7.1h-1.218l-.584-1.665h-2.75l-.584,1.665H226.39Zm1.551,4.4-1.008-2.841-1.008,2.834Z" transform="translate(-139.933 -70.421)" fill="#78c2a6"/>
  <path id="Path_584" data-name="Path 584" d="M265.64,114H267.9a2.284,2.284,0,0,1,2.54,2.349h0a2.367,2.367,0,0,1-2.608,2.4h-1.02v2.291H265.64Zm2.188,3.708a1.277,1.277,0,0,0,1.417-1.321h0a1.24,1.24,0,0,0-1.417-1.31h-1.02v2.639Z" transform="translate(-164.193 -70.464)" fill="#78c2a6"/>
  <path id="Path_585" data-name="Path 585" d="M286.54,114h4.441v1.058H287.7v1.909h2.914v1.058H287.7v1.967h3.338v1.058H286.54Z" transform="translate(-177.112 -70.464)" fill="#78c2a6"/>
  <path id="Path_586" data-name="Path 586" d="M306.905,113.994h2.551a2.6,2.6,0,0,1,1.883.664,2.139,2.139,0,0,1,.584,1.551v.076a2.062,2.062,0,0,1-1.463,2.066l1.665,2.731h-1.352l-1.5-2.505a.211.211,0,0,1-.069,0h-1.146v2.49H306.89Zm2.429,3.517c.905,0,1.409-.485,1.409-1.218v-.008c0-.794-.512-1.207-1.39-1.207h-1.276v2.448Z" transform="translate(-189.69 -70.458)" fill="#78c2a6"/>
  <path id="Path_587" data-name="Path 587" d="M329.12,114h4.422v1.077h-3.254v1.986h2.88v1.069h-2.88v2.922H329.12Z" transform="translate(-203.431 -70.464)" fill="#78c2a6"/>
  <path id="Path_588" data-name="Path 588" d="M348.56,117.447v-.1c0-2.1,1.287-3.6,3.132-3.6s3.112,1.489,3.112,3.578v.1c0,2.1-1.287,3.6-3.132,3.6S348.56,119.532,348.56,117.447Zm5.037-.019v-.073c0-1.528-.806-2.528-1.91-2.528s-1.909,1-1.909,2.521v.069c0,1.528.817,2.528,1.909,2.528S353.6,118.948,353.6,117.428Z" transform="translate(-215.447 -70.309)" fill="#78c2a6"/>
  <path id="Path_589" data-name="Path 589" d="M377.27,113.994h2.547a2.616,2.616,0,0,1,1.887.665,2.154,2.154,0,0,1,.584,1.55v.076a2.066,2.066,0,0,1-1.463,2.066l1.661,2.731h-1.348l-1.5-2.505a.248.248,0,0,1-.073,0h-1.127v2.49H377.27Zm2.429,3.517c.905,0,1.409-.485,1.409-1.218v-.008c0-.794-.516-1.207-1.39-1.207h-1.279v2.448Z" transform="translate(-233.192 -70.458)" fill="#78c2a6"/>
  <path id="Path_590" data-name="Path 590" d="M399.308,114h1.218l1.814,3.246L404.15,114h1.23v7.054h-1.146v-4.972l-1.894,3.265h-.031l-1.864-3.246v4.965H399.3Z" transform="translate(-246.809 -70.464)" fill="#78c2a6"/>
  <path id="Path_591" data-name="Path 591" d="M425.987,113.93h1.127l2.589,7.1h-1.218l-.584-1.665h-2.75l-.584,1.665H423.39Zm1.55,4.4-1.008-2.841-1,2.841Z" transform="translate(-261.699 -70.421)" fill="#78c2a6"/>
  <path id="Path_592" data-name="Path 592" d="M448.21,114H449.3l3.1,4.7V114h1.146v7.054h-.985l-3.2-4.846v4.846h-1.146Z" transform="translate(-277.041 -70.464)" fill="#78c2a6"/>
  <path id="Path_593" data-name="Path 593" d="M474.53,117.445v-.073c0-2.135,1.333-3.594,3.154-3.594a3.055,3.055,0,0,1,2.215.875l-.7.9a2.173,2.173,0,0,0-1.528-.684c-1.107,0-1.944,1-1.944,2.505v.042c0,1.528.836,2.528,1.944,2.528a2.161,2.161,0,0,0,1.562-.733l.684.825a3.055,3.055,0,0,1-2.291,1C475.821,121.031,474.53,119.591,474.53,117.445Z" transform="translate(-293.309 -70.326)" fill="#78c2a6"/>
  <path id="Path_594" data-name="Path 594" d="M497.13,114h4.441v1.058h-3.284v1.909H501.2v1.058h-2.914v1.967h3.334v1.058H497.13Z" transform="translate(-307.278 -70.464)" fill="#78c2a6"/>
  <path id="Path_595" data-name="Path 595" d="M532.4,114h1.169v7.054H532.4Z" transform="translate(-329.079 -70.464)" fill="#78c2a6"/>
  <path id="Path_596" data-name="Path 596" d="M545.22,114h1.088l3.1,4.7V114h1.146v7.054h-.985l-3.193-4.846v4.846h-1.146Z" transform="translate(-337.003 -70.464)" fill="#78c2a6"/>
  <path id="Path_597" data-name="Path 597" d="M567.51,120.035l.707-.875a2.731,2.731,0,0,0,1.856.833c.672,0,1.107-.382,1.107-.894h0c0-.443-.233-.733-1.352-1.146-1.341-.5-2.036-1-2.036-2.123V115.8a2.04,2.04,0,0,1,2.238-1.974,3.281,3.281,0,0,1,2.219.829l-.668.894a2.574,2.574,0,0,0-1.581-.665c-.634,0-1.027.355-1.027.817h0c0,.493.263.764,1.463,1.218,1.31.5,1.91,1.046,1.91,2.074v.023a2.071,2.071,0,0,1-2.291,2.036A3.685,3.685,0,0,1,567.51,120.035Z" transform="translate(-350.781 -70.358)" fill="#78c2a6"/>
  <path id="Path_598" data-name="Path 598" d="M593.1,115.1H591.24V114h4.873v1.088h-1.852v5.965H593.1Z" transform="translate(-365.448 -70.464)" fill="#78c2a6"/>
  <path id="Path_599" data-name="Path 599" d="M612.48,114h1.169v7.054H612.48Z" transform="translate(-378.577 -70.464)" fill="#78c2a6"/>
  <path id="Path_600" data-name="Path 600" d="M625.848,115.1H624V114h4.877v1.088h-1.852v5.965h-1.172Z" transform="translate(-385.697 -70.464)" fill="#78c2a6"/>
  <path id="Path_601" data-name="Path 601" d="M645.06,118.377V114h1.169v4.354c0,1.146.554,1.73,1.459,1.73s1.451-.573,1.451-1.692V114h1.146v4.323c0,1.909-1.039,2.841-2.631,2.841S645.06,120.221,645.06,118.377Z" transform="translate(-398.715 -70.464)" fill="#78c2a6"/>
  <path id="Path_602" data-name="Path 602" d="M672.442,115.1H670.59V114h4.877v1.088h-1.856v5.965h-1.169Z" transform="translate(-414.495 -70.464)" fill="#78c2a6"/>
  <path id="Path_603" data-name="Path 603" d="M695.22,114h4.445v1.058h-3.284v1.909h2.91v1.058h-2.91v1.967h3.338v1.058h-4.5Z" transform="translate(-429.719 -70.464)" fill="#78c2a6"/>
  <path id="Path_604" data-name="Path 604" d="M171.338,29.957H158.48L172.079.1h12.858Z" transform="translate(-97.957 -0.062)" fill="#78c2a6"/>
  <path id="Path_605" data-name="Path 605" d="M12.858,69.148H0L18.159,29.29H31.018Z" transform="translate(0 -18.104)" fill="#78c2a6"/>
  <path id="Path_606" data-name="Path 606" d="M57.408,51.044H44.55L67.8,0H80.662Z" transform="translate(-27.537)" fill="#78c2a6"/>
  <path id="Path_607" data-name="Path 607" d="M101.968,51.044H89.11L112.364,0h12.858Z" transform="translate(-55.079)" fill="#78c2a6"/>
</svg>
